<svg width="27" height="27" viewBox="0 0 27 27" fill="none" xmlns="http://www.w3.org/2000/svg">
<path d="M15.6191 0.00017331C15.9127 0.00017331 16.1948 0.116802 16.4023 0.324392C16.6099 0.531976 16.7266 0.81405 16.7266 1.1076C16.7265 1.40094 16.6097 1.68233 16.4023 1.88982C16.1948 2.09741 15.9127 2.21404 15.6191 2.21404H8.36426C6.22601 2.21404 4.70025 2.71229 3.70703 3.70525C2.71386 4.69842 2.21489 6.22412 2.21484 8.36248V14.4094C2.21488 17.1332 2.6849 18.64 3.64258 19.4826C4.60725 20.3313 6.12097 20.5578 8.36426 20.5578H8.97461C9.33032 20.5682 9.67975 20.6555 9.99805 20.8146C10.2368 20.934 10.4535 21.0918 10.6406 21.2804L10.8174 21.4797L10.8213 21.4836L12.6348 23.9025L12.6426 23.9123L12.6484 23.923C12.7041 24.0203 12.7849 24.1012 12.8818 24.1574C12.9788 24.2136 13.0891 24.2433 13.2012 24.2433C13.3133 24.2433 13.4235 24.2136 13.5205 24.1574C13.6175 24.1012 13.6982 24.0204 13.7539 23.923L13.7598 23.9123L13.7676 23.9025L15.5811 21.4836C15.7972 21.1967 16.0781 20.9636 16.3994 20.8029C16.7206 20.6424 17.0745 20.5586 17.4336 20.5578H18.0361C20.1744 20.5578 21.7001 20.0595 22.6934 19.0666C23.6865 18.0734 24.1855 16.5477 24.1855 14.4094L24.1865 10.7814C24.1865 10.4878 24.3032 10.2058 24.5107 9.99822C24.7182 9.79087 24.9996 9.67408 25.293 9.674C25.5865 9.674 25.8686 9.79067 26.0762 9.99822C26.2838 10.2058 26.4004 10.4878 26.4004 10.7814V14.4094C26.4003 17.1127 25.685 19.2116 24.2627 20.634C22.8402 22.0563 20.741 22.7716 18.0381 22.7717H17.4336C17.4181 22.7717 17.4025 22.7755 17.3887 22.7824C17.3748 22.7894 17.3618 22.7992 17.3525 22.8117L15.5391 25.2306C15.2818 25.6115 14.9349 25.9234 14.5293 26.1398C14.1208 26.3577 13.6651 26.4718 13.2021 26.4719C12.739 26.4719 12.2826 26.3578 11.874 26.1398C11.4686 25.9234 11.1224 25.6113 10.8652 25.2306L9.06934 22.8361C9.0298 22.805 8.98446 22.7834 8.93555 22.7717H8.3623C5.83561 22.7716 3.73128 22.4315 2.2627 21.1916C0.786211 19.945 5.22216e-05 17.8319 0 14.4094L0.000976562 8.36248C0.00102999 5.65904 0.716404 3.56021 2.13867 2.13787C3.56107 0.715471 5.6606 0.00017331 8.36426 0.00017331H15.6191ZM7.82031 10.6896C8.07741 10.5828 8.36062 10.5538 8.63379 10.6076C8.90694 10.6614 9.15811 10.795 9.35547 10.9914C9.55281 11.1877 9.68798 11.4382 9.74316 11.7111C9.79832 11.9839 9.77056 12.267 9.66504 12.5246C9.55949 12.7821 9.38014 13.0027 9.14941 13.1584C8.91859 13.3141 8.64658 13.3982 8.36816 13.3996H8.36133C7.98779 13.3996 7.62946 13.2515 7.36523 12.9875C7.10095 12.7232 6.95215 12.3642 6.95215 11.9904C6.95217 11.712 7.03493 11.4397 7.18945 11.2082C7.34393 10.9768 7.56342 10.7965 7.82031 10.6896ZM12.6572 10.6896C12.9143 10.5828 13.1976 10.5538 13.4707 10.6076C13.7438 10.6614 13.995 10.7951 14.1924 10.9914C14.3897 11.1877 14.5249 11.4382 14.5801 11.7111C14.6352 11.984 14.6075 12.267 14.502 12.5246C14.3964 12.7822 14.2171 13.0027 13.9863 13.1584C13.7555 13.3141 13.4835 13.3982 13.2051 13.3996H13.1982C12.8247 13.3996 12.4664 13.2515 12.2021 12.9875C11.9379 12.7232 11.7891 12.3642 11.7891 11.9904C11.7891 11.712 11.8718 11.4397 12.0264 11.2082C12.1808 10.9768 12.4004 10.7965 12.6572 10.6896ZM18.0381 10.5744C18.4125 10.5744 18.7722 10.7229 19.0371 10.9875C19.3019 11.252 19.4507 11.6112 19.4512 11.9855C19.4515 12.3598 19.3032 12.7194 19.0391 12.9845C18.7749 13.2495 18.4162 13.3986 18.042 13.3996H18.0352C17.6608 13.3987 17.3014 13.2498 17.0371 12.9845C16.7729 12.7194 16.6256 12.3598 16.626 11.9855C16.6264 11.6112 16.7752 11.2521 17.04 10.9875C17.3049 10.723 17.6638 10.5745 18.0381 10.5744ZM20.6895 0.314626C21.4441 0.00203276 22.275 -0.080084 23.0762 0.0792749C23.8772 0.238659 24.6129 0.632584 25.1904 1.21013C25.768 1.78768 26.1619 2.52332 26.3213 3.32439C26.4806 4.12554 26.3985 4.95644 26.0859 5.71111C25.7733 6.46573 25.2436 7.11083 24.5645 7.56463C23.8854 8.01827 23.0871 8.26084 22.2705 8.26092C21.1758 8.25947 20.1257 7.82311 19.3516 7.049C18.5775 6.27489 18.1411 5.22578 18.1396 4.13103C18.1397 3.31441 18.3823 2.51514 18.8359 1.83611C19.2897 1.15696 19.9348 0.627226 20.6895 0.314626ZM22.2705 2.21404C21.7624 2.21462 21.2753 2.41727 20.916 2.77654C20.5568 3.1358 20.3541 3.62301 20.3535 4.13103C20.3536 4.50964 20.4665 4.87965 20.6768 5.19451C20.8873 5.50962 21.187 5.75553 21.5371 5.90056C21.8871 6.04549 22.272 6.08375 22.6436 6.00994C23.0152 5.93601 23.357 5.75344 23.625 5.48552C23.893 5.21754 24.0755 4.87578 24.1494 4.50408C24.2233 4.13242 24.1851 3.74675 24.04 3.39666C23.895 3.04684 23.6498 2.74772 23.335 2.53728C23.0199 2.3268 22.6494 2.21411 22.2705 2.21404Z" fill="white"/>
</svg>
