<svg width="27" height="27" viewBox="0 0 27 27" fill="none" xmlns="http://www.w3.org/2000/svg">
<path d="M19.2666 0C23.2063 8.75837e-05 26.4003 3.19409 26.4004 7.13379V19.2666C26.4003 23.2063 23.2063 26.4003 19.2666 26.4004H7.13379C3.19409 26.4003 8.75814e-05 23.2063 0 19.2666V7.13379C8.80991e-05 3.19409 3.19409 8.80968e-05 7.13379 0H19.2666ZM7.13379 2.13281C4.37267 2.1329 2.1329 4.37267 2.13281 7.13379V19.2666C2.1329 22.0277 4.37267 24.2675 7.13379 24.2676H19.2666C22.0277 24.2675 24.2675 22.0277 24.2676 19.2666V7.13379C24.2675 4.37267 22.0277 2.1329 19.2666 2.13281H7.13379ZM6.20996 8.23633C6.49238 8.22143 6.77026 8.31986 6.98047 8.50879L11.3135 12.4092C11.3962 12.4837 11.4671 12.5711 11.5234 12.668L11.5752 12.7676L11.6152 12.8721C11.6498 12.9784 11.667 13.09 11.667 13.2021C11.667 13.3517 11.6357 13.4996 11.5752 13.6357C11.5142 13.7727 11.4242 13.8954 11.3135 13.9951L6.97949 17.8945C6.90218 17.9641 6.81553 18.0235 6.7207 18.0684L6.62305 18.1084C6.48998 18.1555 6.34877 18.1743 6.20996 18.167C6.07138 18.1596 5.93384 18.1262 5.80664 18.0654C5.67972 18.0048 5.56682 17.919 5.47363 17.8154C5.37976 17.711 5.30727 17.5886 5.26074 17.457C5.21438 17.3256 5.19379 17.1859 5.20117 17.0459C5.20855 16.906 5.24356 16.7687 5.30371 16.6426C5.3639 16.5166 5.4485 16.4024 5.55273 16.3086L9.00586 13.2012L5.55273 10.0947C5.34299 9.90576 5.21623 9.64066 5.20117 9.3584C5.18639 9.07624 5.28429 8.79832 5.47363 8.58789C5.66284 8.37775 5.92792 8.25137 6.20996 8.23633ZM20.1338 16.0352C20.4163 16.0353 20.6878 16.1479 20.8877 16.3477C21.0874 16.5475 21.2001 16.8188 21.2002 17.1016C21.2002 17.3845 21.0873 17.6556 20.8877 17.8555C20.6878 18.0554 20.4165 18.1678 20.1338 18.168H13.2002C12.9172 18.168 12.6463 18.0554 12.4463 17.8555C12.2465 17.6555 12.1338 17.3845 12.1338 17.1016C12.1339 16.8188 12.2464 16.5475 12.4463 16.3477C12.6462 16.1479 12.9173 16.0352 13.2002 16.0352H20.1338Z" fill="white"/>
</svg>
