<svg width="29" height="24" viewBox="0 0 29 24" fill="none" xmlns="http://www.w3.org/2000/svg">
<path d="M11.6895 0.00878906C15.1125 0.18267 17.8447 3.02169 17.8447 6.4873L17.8408 6.71289C17.7711 8.7179 16.7749 10.475 15.2842 11.6123C19.5975 13.083 22.7136 16.9075 22.7139 21.4268V22.9219C22.7139 23.4781 22.2623 23.9314 21.7051 23.9316C21.1482 23.9316 20.6953 23.4788 20.6953 22.9219V21.4268C20.695 16.8024 16.542 12.9746 11.3564 12.9746C6.17113 12.9748 2.01878 16.8025 2.01855 21.4268V22.9219C2.01855 23.4438 1.62069 23.8738 1.1123 23.9258L1.00879 23.9316C0.451546 23.9314 0 23.4781 0 22.9219V21.4268C0.000224157 16.9077 3.1159 13.0841 7.42871 11.6123C5.93838 10.4749 4.94272 8.71763 4.87305 6.71289L4.86914 6.4873C4.86919 2.91022 7.77947 0.000265155 11.3564 0L11.6895 0.00878906ZM19.8789 2.43359C22.7851 2.43379 25.1482 4.79699 25.1484 7.70312L25.1367 8.04492C25.0447 9.47064 24.3803 10.7391 23.376 11.6328C26.549 12.9058 28.8007 15.8601 28.8008 19.3232V20.4863C28.8005 21.043 28.3483 21.4947 27.792 21.4951C27.2358 21.4951 26.7825 21.0437 26.7822 20.4863V19.3232C26.7821 15.9592 23.905 13.1537 20.2363 12.9814L19.8789 12.9736C19.3227 12.9736 18.8695 12.522 18.8691 11.9648C18.8691 11.4079 19.322 10.9551 19.8789 10.9551L20.0459 10.9512C21.761 10.8637 23.1299 9.43973 23.1299 7.70312C23.1296 5.9668 21.761 4.54347 20.0459 4.45605L19.8789 4.45215C19.3569 4.45215 18.9269 4.05429 18.875 3.5459L18.8691 3.44238C18.8694 2.88514 19.3227 2.43359 19.8789 2.43359ZM11.3564 2.01855C8.89201 2.0188 6.88774 4.02291 6.8877 6.4873C6.8877 8.95189 8.89208 10.9568 11.3564 10.957C13.8211 10.957 15.8262 8.95193 15.8262 6.4873C15.8261 4.02281 13.8211 2.01855 11.3564 2.01855Z" fill="white"/>
</svg>
