<svg width="25" height="25" viewBox="0 0 25 25" fill="none" xmlns="http://www.w3.org/2000/svg">
<path d="M21.1328 0C22.9343 0 24.4004 1.46606 24.4004 3.26758V21.1328C24.4004 22.9343 22.9343 24.4004 21.1328 24.4004H3.26758C1.46606 24.4004 0 22.9343 0 21.1328V3.26758C0 1.46606 1.46606 0 3.26758 0H21.1328ZM17.9834 10.0986C17.9391 10.0964 17.8585 10.1043 17.7881 10.1748L10.8633 17.1104C10.5318 17.4422 10.0028 17.465 9.64258 17.166L6.72754 14.7471C6.68139 14.7086 6.62251 14.6872 6.56152 14.6875C6.50019 14.6879 6.44182 14.7095 6.39648 14.748L1.81348 18.6465V21.1328C1.81348 21.9339 2.46646 22.5869 3.26758 22.5869H21.1328C21.9339 22.5869 22.5869 21.9339 22.5869 21.1328V15.6328L18.1699 10.1943C18.1069 10.1167 18.0269 10.1009 17.9834 10.0986ZM3.26758 1.81348C2.46646 1.81348 1.81348 2.46646 1.81348 3.26758V16.2666L5.2207 13.3682C5.5917 13.0516 6.06294 12.876 6.55078 12.873C7.03845 12.8702 7.51187 13.0394 7.88672 13.3516L10.1641 15.2422L16.5039 8.89258C16.9179 8.47795 17.4917 8.25852 18.0762 8.28809L18.292 8.31055C18.5058 8.34424 18.7134 8.41137 18.9072 8.50977C19.166 8.64123 19.3943 8.82603 19.5771 9.05078L22.5869 12.7559V3.26758C22.5869 2.46646 21.9339 1.81348 21.1328 1.81348H3.26758ZM7.75488 2.95312C9.74444 2.95332 11.3631 4.57192 11.3633 6.56152C11.3632 8.55119 9.74452 10.1707 7.75488 10.1709C5.76522 10.1707 4.14658 8.55112 4.14648 6.56152C4.14671 4.57204 5.7653 2.95335 7.75488 2.95312ZM7.75488 4.7666C6.76565 4.76679 5.96015 5.57229 5.95996 6.56152C5.96006 7.55088 6.76568 8.35625 7.75488 8.35645C8.74417 8.35625 9.54971 7.55079 9.5498 6.56152C9.54961 5.57242 8.7442 4.76679 7.75488 4.7666Z" fill="white"/>
</svg>
