<svg width="32" height="28" viewBox="0 0 32 28" fill="none" xmlns="http://www.w3.org/2000/svg">
<path d="M20.1758 8.55078H16.9209V12.8662H24.2705C25.411 12.8662 26.4945 13.3227 27.292 14.1201C28.0895 14.9176 28.5459 16.001 28.5459 17.1416V19.375H31.8008V27.9258H23.25V19.375H26.5059V17.1416C26.5059 16.5686 26.2862 16.0097 25.8643 15.6299L25.8564 15.623L25.8486 15.6152C25.4506 15.2174 24.8769 14.958 24.3223 14.958H16.9209V19.375H20.1758V27.9258H11.625V19.375H14.8291V14.958H7.53125C6.9582 14.958 6.39931 15.1786 6.01953 15.6006L6.0127 15.6084L6.00488 15.6152C5.60687 16.0132 5.34766 16.5869 5.34766 17.1416V19.375H8.55078V27.9258H0V19.375H3.2041V17.1416C3.2041 16.001 3.66048 14.9176 4.45801 14.1201C5.25553 13.3226 6.33896 12.8662 7.47949 12.8662H14.8291V8.55078H11.625V0H20.1758V8.55078ZM2.0918 25.7822H6.45898V21.415H2.0918V25.7822ZM13.7168 25.7822H18.084V21.415H13.7168V25.7822ZM25.3418 25.7822H29.709V21.415H25.3418V25.7822ZM13.7168 6.40723H18.084V2.04004H13.7168V6.40723Z" fill="white"/>
</svg>
