<svg width="28" height="28" viewBox="0 0 28 28" fill="none" xmlns="http://www.w3.org/2000/svg">
<path d="M16.6539 0.625832C17.4863 -0.20923 18.9314 -0.208642 19.7652 0.627786L27.152 8.02036C27.5678 8.43507 27.7983 8.98977 27.7984 9.577C27.7984 10.0911 27.6219 10.5796 27.2994 10.9715L27.1617 11.1249L24.6686 13.618C24.2572 14.0196 23.7131 14.2419 23.1363 14.242C22.8332 14.242 22.538 14.1794 22.2652 14.0614L21.7858 13.8543L21.5143 14.2997C20.5297 15.9144 19.2589 18.5655 19.1803 21.6063L19.1764 21.9022C19.1761 22.113 19.1079 22.3183 18.982 22.4852C18.8877 22.6102 18.7637 22.7102 18.6217 22.7772L18.4723 22.8329L18.4703 22.8338L18.4645 22.8348L1.35704 27.7264L1.21349 27.7665C1.13319 27.7874 1.04977 27.7977 0.966417 27.7977C0.854694 27.7974 0.743128 27.7796 0.638292 27.742L0.535753 27.6981C0.400723 27.6306 0.283108 27.533 0.193956 27.4149C0.128194 27.3277 0.0797731 27.2286 0.046495 27.1239L0.015245 26.9989C-0.0102711 26.8538 -0.00396917 26.7039 0.0357529 26.5643L4.96251 9.31236C5.08159 8.89665 5.46185 8.6093 5.89317 8.60923C9.05605 8.60914 11.8245 7.28483 13.4899 6.26743L13.9342 5.99595L13.7281 5.51841C13.6104 5.24475 13.5475 4.9496 13.5475 4.64732C13.5476 4.05944 13.7767 3.50496 14.192 3.09068L16.6539 0.625832ZM14.9508 7.64732C13.34 8.69104 10.4665 10.216 7.03771 10.5067L6.62462 10.5409L6.51134 10.9393L2.92247 23.5057L8.87169 17.5565L8.75743 17.2059C8.67084 16.9417 8.62074 16.6595 8.62071 16.3631C8.62085 14.8104 9.88351 13.5477 11.4361 13.5477C12.9885 13.5481 14.2505 14.8107 14.2506 16.3631C14.2505 17.9155 12.9885 19.1772 11.4361 19.1776C11.1393 19.1776 10.856 19.1274 10.5904 19.0399L10.2399 18.9247L9.97814 19.1854L4.29064 24.8749L16.857 21.285L17.2555 21.1708L17.2906 20.7586C17.5819 17.3307 19.1056 14.457 20.149 12.8465L20.4137 12.4393L15.358 7.38365L14.9508 7.64732ZM11.4361 15.4833C10.9529 15.4833 10.5549 15.8767 10.5543 16.3622H11.1149C11.1153 16.1875 11.2548 16.0441 11.4352 16.0438V16.0838C11.2813 16.0842 11.1551 16.211 11.1549 16.3631L11.1149 16.3622H10.5543C10.5544 16.8468 10.9515 17.244 11.4361 17.244C11.9213 17.2431 12.3149 16.8461 12.3151 16.3631L11.7535 16.3622L11.7545 16.3631H11.7154C11.7153 16.2292 11.6185 16.1161 11.4918 16.0897L11.4352 16.0838V16.0438L11.5006 16.0506C11.6465 16.08 11.7532 16.2068 11.7535 16.3622L12.3151 16.3631C12.3144 15.8794 11.9198 15.4842 11.4361 15.4833ZM11.1549 16.3631C11.155 16.5162 11.2821 16.643 11.4352 16.6434V16.6834C11.2577 16.6832 11.1153 16.5416 11.1149 16.3641L11.1549 16.3631ZM11.7545 16.3631C11.754 16.5435 11.6098 16.6833 11.4352 16.6834L11.4361 16.6444C11.5883 16.644 11.7153 16.517 11.7154 16.3631H11.7545ZM17.7848 2.24888L15.7955 4.23814L15.3717 4.66294L23.1354 12.4266L23.5592 12.0018L25.5484 10.0126L25.9733 9.58872L18.2096 1.82505L17.7848 2.24888Z" fill="white"/>
</svg>
