<svg width="13" height="13" viewBox="0 0 13 13" fill="none" xmlns="http://www.w3.org/2000/svg">
<path d="M6.4082 0.0107422C6.51398 0.0319237 6.61214 0.0838184 6.68945 0.161133C6.79263 0.264355 6.85059 0.40466 6.85059 0.550781V4.79785C6.84933 4.91815 6.87076 5.03886 6.91504 5.15234C6.96181 5.27202 7.0322 5.37979 7.12012 5.46973C7.20828 5.55985 7.31484 5.63321 7.43359 5.68262C7.55297 5.73224 7.67778 5.75215 7.79883 5.75195L12.0488 5.75391C12.1942 5.75391 12.3347 5.81219 12.4385 5.91602C12.5417 6.01923 12.5996 6.15952 12.5996 6.30566L12.5889 6.41406C12.5676 6.51989 12.5157 6.61811 12.4385 6.69531C12.3526 6.78108 12.2407 6.83479 12.1211 6.85059H7.79883C7.73812 6.8505 7.67755 6.85574 7.61816 6.86719L7.60254 6.87012L7.58789 6.875L7.46484 6.91211L7.45117 6.91602L7.4375 6.92188C7.32266 6.96908 7.21717 7.03869 7.12793 7.12793C7.08219 7.17367 7.04247 7.22276 7.00879 7.27344L7.00098 7.28613L6.99414 7.29883L6.93457 7.41113L6.92773 7.42383L6.92188 7.43848C6.87548 7.55181 6.8504 7.6743 6.85059 7.79883V12.0547L6.83984 12.1631C6.81864 12.2689 6.76672 12.3671 6.68945 12.4443C6.61213 12.5216 6.51395 12.5735 6.4082 12.5947L6.2998 12.6055C6.15366 12.6055 6.01337 12.5475 5.91016 12.4443C5.83289 12.3671 5.78097 12.2689 5.75977 12.1631L5.74902 12.0547V7.79883C5.74921 7.6743 5.72413 7.55181 5.67773 7.43848C5.65418 7.38119 5.62521 7.3252 5.59082 7.27344L5.58301 7.26172L5.57324 7.25L5.49219 7.15039L5.47266 7.12695L5.44922 7.10742L5.34961 7.02637L5.32715 7.00781L5.30078 6.99414L5.18848 6.93457L5.16211 6.9209L5.13477 6.91211L5.01172 6.875L4.99707 6.87012L4.98145 6.86719C4.92205 6.85574 4.86149 6.8505 4.80078 6.85059H0.550781C0.477794 6.85059 0.405883 6.8359 0.339844 6.80859C0.273858 6.78123 0.212765 6.74106 0.161133 6.68945C0.110086 6.63841 0.0697254 6.57672 0.0419922 6.50977C0.0145923 6.44339 0 6.37222 0 6.2998C6.23981e-08 6.22739 0.0145921 6.15622 0.0419922 6.08984C0.0697257 6.02289 0.110086 5.9612 0.161133 5.91016C0.212766 5.85855 0.273859 5.81838 0.339844 5.79102C0.405882 5.76371 0.477793 5.74902 0.550781 5.74902H4.80078C4.9253 5.74921 5.04779 5.72414 5.16113 5.67773C5.27598 5.63052 5.38245 5.56091 5.47168 5.47168C5.56092 5.38244 5.63052 5.27695 5.67773 5.16211C5.70076 5.10587 5.72026 5.04446 5.73242 4.98145L5.73535 4.9668L5.73633 4.95215L5.74805 4.82422L5.74902 4.81055V0.550781C5.74902 0.404659 5.80698 0.264355 5.91016 0.161133C6.01335 0.0579367 6.15359 0 6.2998 0L6.4082 0.0107422Z" fill="white"/>
</svg>
