<svg width="11" height="8" viewBox="0 0 11 8" fill="none" xmlns="http://www.w3.org/2000/svg">
<path d="M5.53451 0.0996005L10.636 7.69961C10.6773 7.7612 10.6773 7.83761 10.636 7.90001C10.6157 7.93039 10.5864 7.95562 10.5511 7.97317C10.5159 7.99072 10.4759 7.99997 10.4352 8L0.2322 8C0.149177 8 0.0726538 7.9616 0.031393 7.90001C0.0111694 7.86956 0.000464432 7.8351 0.000327102 7.80001C0.0003271 7.76521 0.0105228 7.73081 0.031393 7.69961L5.13292 0.0996006C5.17465 0.0380065 5.25118 2.36733e-07 5.33372 2.33125e-07C5.41627 2.29516e-07 5.49325 0.0380065 5.53451 0.0996005Z" fill="white"/>
</svg>
