<svg width="16" height="20" viewBox="0 0 16 20" fill="none" xmlns="http://www.w3.org/2000/svg">
<path fill-rule="evenodd" clip-rule="evenodd" d="M9.63992 16.3984L11.1743 19.6941C11.2256 19.8043 11.3793 19.8112 11.4403 19.7062L12.6014 17.7081L14.8779 18.1058C14.9978 18.1268 15.0913 18.0048 15.0399 17.8945L13.2246 13.9952C13.0673 14.0764 12.9512 14.1837 12.8492 14.3396L12.1545 15.402C11.604 16.2437 10.6063 16.6338 9.63992 16.3984ZM7.92908 11.2677C6.70765 10.5502 4.46054 8.90347 4.43053 7.26033C4.39715 5.43109 6.45322 4.60145 8 6.17428C9.54654 4.60169 11.6026 5.43076 11.5695 7.26004C11.5398 8.90326 9.29244 10.5501 8.07092 11.2677C8.04954 11.2807 8.02501 11.2875 8 11.2875C7.97499 11.2875 7.95046 11.2807 7.92908 11.2677ZM9.01076 0.341628L10.027 1.10229C10.3049 1.31032 10.5974 1.4168 10.9441 1.43609L12.2114 1.5066C12.9703 1.5488 13.5867 2.06599 13.76 2.80604L14.0495 4.04194C14.1287 4.37994 14.2844 4.64954 14.5375 4.88712L15.4631 5.75583C16.0173 6.27598 16.157 7.06833 15.8141 7.74665L15.2415 8.87952C15.0849 9.18934 15.0308 9.49594 15.072 9.84063L15.2227 11.101C15.3129 11.8557 14.9106 12.5526 14.2119 12.8517L13.045 13.3515C12.7259 13.4881 12.4874 13.6882 12.2974 13.9788L11.6027 15.0411C11.1867 15.6772 10.4306 15.9524 9.70305 15.7325L8.48797 15.3653C8.15565 15.2648 7.84435 15.2648 7.51203 15.3653L6.29695 15.7325C5.56938 15.9524 4.81334 15.6772 4.39732 15.0411L3.70256 13.9788C3.51254 13.6882 3.27405 13.4881 2.95496 13.3515L1.78809 12.8517C1.08941 12.5525 0.68712 11.8557 0.77733 11.101L0.927994 9.84059C0.969204 9.4959 0.915137 9.1893 0.758538 8.87948L0.185881 7.74661C-0.156989 7.06829 -0.017286 6.27594 0.536909 5.75579L1.46249 4.88708C1.71565 4.6495 1.87126 4.3799 1.95046 4.04189L2.23996 2.806C2.41333 2.06595 3.02968 1.5488 3.78856 1.50656L5.05594 1.43605C5.40256 1.41676 5.69511 1.31032 5.97303 1.10224L6.98928 0.341587C7.59771 -0.113869 8.4023 -0.113869 9.01076 0.341628ZM8 2.53475C5.03484 2.53475 2.63109 4.93851 2.63109 7.90366C2.63109 10.8688 5.03484 13.2726 8 13.2726C10.9652 13.2726 13.3689 10.8688 13.3689 7.90366C13.3689 4.93846 10.9652 2.53475 8 2.53475ZM6.36008 16.3984C5.39366 16.6338 4.39596 16.2437 3.84551 15.402L3.15075 14.3396C3.04871 14.1836 2.93271 14.0764 2.77545 13.9952L0.960056 17.8945C0.908667 18.0048 1.00221 18.1267 1.12205 18.1058L3.39859 17.7081L4.55969 19.7062C4.62076 19.8112 4.77443 19.8043 4.8257 19.6941L6.36008 16.3984Z" fill="white"/>
</svg>
