<svg width="18" height="18" viewBox="0 0 18 18" fill="none" xmlns="http://www.w3.org/2000/svg">
<path d="M0 6V15C0 15.99 0.81 16.8 1.8 16.8H9.312C8.71598 15.9132 8.39841 14.8685 8.4 13.8C8.4 10.824 10.824 8.4 13.8 8.4C14.91 8.4 15.942 8.736 16.8 9.312V6H0ZM5.4 13.8H3V12.6H5.4V13.8ZM5.4 10.2H3V9H5.4V10.2ZM13.8 9.6C11.484 9.6 9.6 11.484 9.6 13.8C9.6 16.116 11.484 18 13.8 18C16.116 18 18 16.116 18 13.8C18 11.484 16.116 9.6 13.8 9.6ZM13.2 15.8484L11.1516 13.8L12 12.9516L13.2 14.1516L15.6 11.7516L16.4484 12.6L13.2 15.8484ZM16.8 3V4.8H0V3C0 2.01 0.81 1.2 1.8 1.2H3.6V0H4.8V1.2H12V0H13.2V1.2H15C15.99 1.2 16.8 2.01 16.8 3Z" fill="white"/>
</svg>
