<svg width="16" height="17" viewBox="0 0 16 17" fill="none" xmlns="http://www.w3.org/2000/svg">
<path d="M15.7236 14.4932C15.8743 14.4932 15.9749 14.6186 16 14.7441C16 15.4725 15.3973 16.0751 14.6689 16.0752H1.33105C0.602732 16.0751 1.49132e-05 15.4725 0 14.7441C0 14.6186 0.125455 14.4933 0.250977 14.4932H15.7236ZM12.7598 10.2969C13.3877 9.99566 14.1917 10.0464 14.7441 10.4482V13.9893H1.23047V10.4482C1.23047 10.4233 1.2553 10.3977 1.28027 10.3975C1.83277 10.0459 2.58668 10.0207 3.18945 10.2969C3.84251 10.5983 4.59667 10.5983 5.22461 10.2969C5.75188 10.046 6.42978 10.046 6.95703 10.2969C7.61009 10.5983 8.36424 10.5983 8.99219 10.2969C9.51945 10.046 10.1973 10.046 10.7246 10.2969C11.3777 10.5983 12.1318 10.5983 12.7598 10.2969ZM12.6592 7.48535C13.7895 7.48535 14.7188 8.41462 14.7188 9.54492V9.87109C14.0659 9.51968 13.2122 9.51947 12.5342 9.8457C12.0569 10.0718 11.4535 10.0718 10.9512 9.8457C10.2731 9.51932 9.4437 9.51922 8.76562 9.8457C8.28842 10.0717 7.68588 10.0717 7.18359 9.8457C6.5306 9.51931 5.70152 9.51925 5.02344 9.8457C4.54622 10.0718 3.94375 10.0717 3.44141 9.8457C2.73813 9.51918 1.90891 9.54459 1.25586 9.87109V9.54492C1.25586 8.41466 2.18518 7.48541 3.31543 7.48535H12.6592ZM4.99805 4.29492C5.5004 4.29492 5.92773 4.72225 5.92773 5.22461V6.98242H4.06934V5.22461C4.06934 4.69727 4.49586 4.29513 4.99805 4.29492ZM7.9873 3.21484C8.48966 3.21484 8.91699 3.64218 8.91699 4.14453V6.98242H7.05762V4.14453C7.05762 3.64222 7.48501 3.21492 7.9873 3.21484ZM10.9766 4.29492C11.504 4.29498 11.9062 4.72229 11.9062 5.22461V6.98242H10.0469V5.22461C10.0469 4.69714 10.4742 4.29492 10.9766 4.29492ZM4.99805 1.08008C5.0734 1.08008 5.14898 1.1307 5.19922 1.20605C5.37518 1.4575 5.90234 2.3365 5.90234 2.73828C5.9021 3.24043 5.50025 3.6416 4.99805 3.6416C4.49602 3.6414 4.09399 3.2403 4.09375 2.73828C4.09375 2.33645 4.62196 1.45737 4.79785 1.20605C4.82293 1.13083 4.92274 1.08025 4.99805 1.08008ZM10.9766 1.08008C11.0519 1.08013 11.1275 1.13074 11.1777 1.20605C11.3539 1.4578 11.8809 2.33663 11.8809 2.73828C11.8806 3.24039 11.4787 3.64154 10.9766 3.6416C10.4744 3.6416 10.0725 3.24043 10.0723 2.73828C10.0723 2.33657 10.5993 1.45767 10.7754 1.20605C10.8005 1.1307 10.9012 1.08008 10.9766 1.08008ZM7.9873 0C8.06266 0 8.16336 0.0506233 8.18848 0.125977C8.3645 0.402609 8.8916 1.25647 8.8916 1.6582C8.89137 2.16036 8.48952 2.56152 7.9873 2.56152C7.48517 2.56145 7.08325 2.13522 7.08301 1.6582C7.08301 1.25655 7.61001 0.377729 7.78613 0.125977C7.81124 0.0506688 7.91197 6.05874e-05 7.9873 0Z" fill="url(#paint0_linear_1582_12271)"/>
<defs>
<linearGradient id="paint0_linear_1582_12271" x1="0" y1="8.0376" x2="16" y2="8.0376" gradientUnits="userSpaceOnUse">
<stop stop-color="#A594F9"/>
<stop offset="0.269231" stop-color="#B97375"/>
<stop offset="0.692308" stop-color="#E070F7"/>
<stop offset="1" stop-color="#615793"/>
</linearGradient>
</defs>
</svg>
