<svg width="16" height="15" viewBox="0 0 16 15" fill="none" xmlns="http://www.w3.org/2000/svg">
<path d="M14.7333 1.2653C13.1105 -0.423195 10.2049 -0.420338 8.58212 1.2653L7.99929 1.84813L7.41645 1.2653C5.79367 -0.420338 2.88523 -0.423195 1.2653 1.2653C-0.420338 2.88523 -0.423195 5.79653 1.2653 7.41645L7.81644 13.9676C7.91358 14.0676 8.08785 14.0704 8.18499 13.9676L14.7361 7.41645C16.4218 5.79653 16.4218 2.88523 14.7333 1.2653ZM14.5761 4.03661C14.5429 4.04374 14.5085 4.04411 14.4752 4.03771C14.4418 4.0313 14.41 4.01825 14.3817 3.99933C14.3535 3.98041 14.3293 3.956 14.3107 3.92756C14.2921 3.89911 14.2793 3.86722 14.2733 3.83376C14.0562 2.6081 12.9076 1.65957 11.662 1.67957C11.5191 1.67957 11.402 1.56243 11.402 1.42244C11.402 1.27959 11.5191 1.16531 11.662 1.16531C12.5105 1.16531 13.3105 1.49672 13.9104 2.09669C14.2047 2.3224 15.1932 3.88233 14.5761 4.03661Z" fill="url(#paint0_linear_1582_12277)"/>
<defs>
<linearGradient id="paint0_linear_1582_12277" x1="0" y1="7.02183" x2="16" y2="7.02183" gradientUnits="userSpaceOnUse">
<stop stop-color="#A594F9"/>
<stop offset="0.269231" stop-color="#B97375"/>
<stop offset="0.692308" stop-color="#E070F7"/>
<stop offset="1" stop-color="#615793"/>
</linearGradient>
</defs>
</svg>
