<svg width="18" height="22" viewBox="0 0 18 22" fill="none" xmlns="http://www.w3.org/2000/svg">
<path d="M6.90652 4.2041L7.52762 5.92896C7.86843 6.87455 8.41362 7.73331 9.12436 8.44404C9.83509 9.15477 10.6939 9.69997 11.6394 10.0408L13.3643 10.6619C13.3984 10.6744 13.4278 10.697 13.4485 10.7268C13.4693 10.7565 13.4804 10.7919 13.4804 10.8282C13.4804 10.8645 13.4693 10.8999 13.4485 10.9296C13.4278 10.9593 13.3984 10.982 13.3643 10.9945L11.6394 11.6156C10.6939 11.9564 9.83509 12.5016 9.12436 13.2123C8.41362 13.923 7.86843 14.7818 7.52762 15.7274L6.90652 17.4523C6.89403 17.4863 6.87138 17.5157 6.84164 17.5365C6.8119 17.5573 6.7765 17.5684 6.74022 17.5684C6.70394 17.5684 6.66854 17.5573 6.6388 17.5365C6.60906 17.5157 6.58641 17.4863 6.57392 17.4523L5.95282 15.7274C5.61201 14.7818 5.06682 13.923 4.35608 13.2123C3.64535 12.5016 2.78659 11.9564 1.841 11.6156L0.116144 10.9945C0.0820852 10.982 0.0526824 10.9593 0.0319106 10.9296C0.0111389 10.8999 0 10.8645 0 10.8282C0 10.7919 0.0111389 10.7565 0.0319106 10.7268C0.0526824 10.697 0.0820852 10.6744 0.116144 10.6619L1.841 10.0408C2.78659 9.69997 3.64535 9.15477 4.35608 8.44404C5.06682 7.73331 5.61201 6.87455 5.95282 5.92896L6.57392 4.2041C6.58607 4.1697 6.60858 4.13991 6.63836 4.11883C6.66815 4.09776 6.70374 4.08645 6.74022 4.08645C6.7767 4.08645 6.81229 4.09776 6.84208 4.11883C6.87186 4.13991 6.89437 4.1697 6.90652 4.2041ZM14.6707 0.0590271L14.9855 0.932285C15.1582 1.41105 15.4344 1.84585 15.7943 2.20574C16.1542 2.56563 16.589 2.84177 17.0677 3.01449L17.941 3.3293C17.9583 3.3356 17.9732 3.34706 17.9838 3.36215C17.9943 3.37723 18 3.3952 18 3.41361C18 3.43202 17.9943 3.44998 17.9838 3.46507C17.9732 3.48015 17.9583 3.49162 17.941 3.49792L17.0677 3.81272C16.589 3.98544 16.1542 4.26158 15.7943 4.62147C15.4344 4.98137 15.1582 5.41617 14.9855 5.89493L14.6707 6.76819C14.6644 6.78549 14.6529 6.80043 14.6379 6.81099C14.6228 6.82155 14.6048 6.82721 14.5864 6.82721C14.568 6.82721 14.55 6.82155 14.5349 6.81099C14.5199 6.80043 14.5084 6.78549 14.5021 6.76819L14.1873 5.89493C14.0146 5.41617 13.7384 4.98137 13.3785 4.62147C13.0186 4.26158 12.5838 3.98544 12.1051 3.81272L11.2318 3.49792C11.2145 3.49162 11.1996 3.48015 11.189 3.46507C11.1785 3.44998 11.1728 3.43202 11.1728 3.41361C11.1728 3.3952 11.1785 3.37723 11.189 3.36215C11.1996 3.34706 11.2145 3.3356 11.2318 3.3293L12.1051 3.01449C12.5838 2.84177 13.0186 2.56563 13.3785 2.20574C13.7384 1.84585 14.0146 1.41105 14.1873 0.932285L14.5021 0.0590271C14.5084 0.0417268 14.5199 0.0267831 14.5349 0.0162236C14.55 0.00566413 14.568 0 14.5864 0C14.6048 0 14.6228 0.00566413 14.6379 0.0162236C14.6529 0.0267831 14.6644 0.0417268 14.6707 0.0590271ZM14.6707 14.8889L14.9855 15.7622C15.1582 16.241 15.4344 16.6758 15.7943 17.0357C16.1542 17.3955 16.589 17.6717 17.0677 17.8444L17.941 18.1592C17.9583 18.1655 17.9732 18.177 17.9838 18.1921C17.9943 18.2071 18 18.2251 18 18.2435C18 18.2619 17.9943 18.2799 17.9838 18.295C17.9732 18.3101 17.9583 18.3215 17.941 18.3278L17.0677 18.6426C16.589 18.8154 16.1542 19.0915 15.7943 19.4514C15.4344 19.8113 15.1582 20.2461 14.9855 20.7248L14.6707 21.5981C14.6644 21.6154 14.6529 21.6303 14.6379 21.6409C14.6228 21.6515 14.6048 21.6571 14.5864 21.6571C14.568 21.6571 14.55 21.6515 14.5349 21.6409C14.5199 21.6303 14.5084 21.6154 14.5021 21.5981L14.1873 20.7248C14.0146 20.2461 13.7384 19.8113 13.3785 19.4514C13.0186 19.0915 12.5838 18.8154 12.1051 18.6426L11.2318 18.3278C11.2145 18.3215 11.1996 18.3101 11.189 18.295C11.1785 18.2799 11.1728 18.2619 11.1728 18.2435C11.1728 18.2251 11.1785 18.2071 11.189 18.1921C11.1996 18.177 11.2145 18.1655 11.2318 18.1592L12.1051 17.8444C12.5838 17.6717 13.0186 17.3955 13.3785 17.0357C13.7384 16.6758 14.0146 16.241 14.1873 15.7622L14.5021 14.8889C14.5307 14.81 14.6429 14.81 14.6707 14.8889Z" fill="#D7F700"/>
</svg>
