<svg width="27" height="33" viewBox="0 0 27 33" fill="none" xmlns="http://www.w3.org/2000/svg">
<path d="M10.3598 6.30615L11.2914 8.89344C11.8026 10.3118 12.6204 11.6 13.6865 12.6661C14.7526 13.7322 16.0408 14.55 17.4592 15.0612L20.0464 15.9928C20.0975 16.0116 20.1416 16.0455 20.1728 16.0901C20.204 16.1347 20.2207 16.1879 20.2207 16.2423C20.2207 16.2967 20.204 16.3498 20.1728 16.3944C20.1416 16.439 20.0975 16.473 20.0464 16.4917L17.4592 17.4234C16.0408 17.9346 14.7526 18.7524 13.6865 19.8185C12.6204 20.8846 11.8026 22.1727 11.2914 23.5911L10.3598 26.1784C10.341 26.2295 10.3071 26.2736 10.2625 26.3047C10.2178 26.3359 10.1647 26.3526 10.1103 26.3526C10.0559 26.3526 10.0028 26.3359 9.9582 26.3047C9.91359 26.2736 9.87962 26.2295 9.86088 26.1784L8.92923 23.5911C8.41802 22.1727 7.60023 20.8846 6.53413 19.8185C5.46803 18.7524 4.17988 17.9346 2.7615 17.4234L0.174217 16.4917C0.123128 16.473 0.0790236 16.439 0.0478659 16.3944C0.0167083 16.3498 0 16.2967 0 16.2423C0 16.1879 0.0167083 16.1347 0.0478659 16.0901C0.0790236 16.0455 0.123128 16.0116 0.174217 15.9928L2.7615 15.0612C4.17988 14.55 5.46803 13.7322 6.53413 12.6661C7.60023 11.6 8.41802 10.3118 8.92923 8.89344L9.86088 6.30615C9.8791 6.25455 9.91287 6.20986 9.95755 6.17825C10.0022 6.14664 10.0556 6.12967 10.1103 6.12967C10.1651 6.12967 10.2184 6.14664 10.2631 6.17825C10.3078 6.20986 10.3416 6.25455 10.3598 6.30615ZM22.0061 0.0885406L22.4783 1.39843C22.7373 2.11657 23.1516 2.76877 23.6914 3.30861C24.2312 3.84845 24.8834 4.26265 25.6016 4.52174L26.9115 4.99395C26.9374 5.00339 26.9598 5.0206 26.9757 5.04322C26.9915 5.06584 27 5.09279 27 5.12041C27 5.14803 26.9915 5.17498 26.9757 5.1976C26.9598 5.22022 26.9374 5.23742 26.9115 5.24687L25.6016 5.71908C24.8834 5.97817 24.2312 6.39237 23.6914 6.93221C23.1516 7.47205 22.7373 8.12425 22.4783 8.84239L22.0061 10.1523C21.9966 10.1782 21.9794 10.2006 21.9568 10.2165C21.9342 10.2323 21.9072 10.2408 21.8796 10.2408C21.852 10.2408 21.825 10.2323 21.8024 10.2165C21.7798 10.2006 21.7626 10.1782 21.7531 10.1523L21.2809 8.84239C21.0218 8.12425 20.6076 7.47205 20.0678 6.93221C19.528 6.39237 18.8757 5.97817 18.1576 5.71908L16.8477 5.24687C16.8218 5.23742 16.7994 5.22022 16.7835 5.1976C16.7677 5.17498 16.7592 5.14803 16.7592 5.12041C16.7592 5.09279 16.7677 5.06584 16.7835 5.04322C16.7994 5.0206 16.8218 5.00339 16.8477 4.99395L18.1576 4.52174C18.8757 4.26265 19.528 3.84845 20.0678 3.30861C20.6076 2.76877 21.0218 2.11657 21.2809 1.39843L21.7531 0.0885406C21.7626 0.0625901 21.7798 0.0401747 21.8024 0.0243354C21.825 0.00849619 21.852 0 21.8796 0C21.9072 0 21.9342 0.00849619 21.9568 0.0243354C21.9794 0.0401747 21.9966 0.0625901 22.0061 0.0885406ZM22.0061 22.3334L22.4783 23.6433C22.7373 24.3614 23.1516 25.0136 23.6914 25.5535C24.2312 26.0933 24.8834 26.5075 25.6016 26.7666L26.9115 27.2388C26.9374 27.2483 26.9598 27.2655 26.9757 27.2881C26.9915 27.3107 27 27.3377 27 27.3653C27 27.3929 26.9915 27.4199 26.9757 27.4425C26.9598 27.4651 26.9374 27.4823 26.9115 27.4917L25.6016 27.964C24.8834 28.223 24.2312 28.6372 23.6914 29.1771C23.1516 29.7169 22.7373 30.3691 22.4783 31.0873L22.0061 32.3972C21.9966 32.4231 21.9794 32.4455 21.9568 32.4614C21.9342 32.4772 21.9072 32.4857 21.8796 32.4857C21.852 32.4857 21.825 32.4772 21.8024 32.4614C21.7798 32.4455 21.7626 32.4231 21.7531 32.3972L21.2809 31.0873C21.0218 30.3691 20.6076 29.7169 20.0678 29.1771C19.528 28.6372 18.8757 28.223 18.1576 27.964L16.8477 27.4917C16.8218 27.4823 16.7994 27.4651 16.7835 27.4425C16.7677 27.4199 16.7592 27.3929 16.7592 27.3653C16.7592 27.3377 16.7677 27.3107 16.7835 27.2881C16.7994 27.2655 16.8218 27.2483 16.8477 27.2388L18.1576 26.7666C18.8757 26.5075 19.528 26.0933 20.0678 25.5535C20.6076 25.0136 21.0218 24.3614 21.2809 23.6433L21.7531 22.3334C21.7961 22.2151 21.9643 22.2151 22.0061 22.3334Z" fill="#FE884B"/>
</svg>
