<svg width="14" height="14" viewBox="0 0 14 14" fill="none" xmlns="http://www.w3.org/2000/svg">
<path d="M7 14C3.1402 14 0 10.8598 0 7C0 3.1402 3.1402 0 7 0C10.8598 0 14 3.1402 14 7C14 10.8598 10.8598 14 7 14ZM7 1.4C3.9123 1.4 1.4 3.9123 1.4 7C1.4 10.0877 3.9123 12.6 7 12.6C10.0877 12.6 12.6 10.0877 12.6 7C12.6 3.9123 10.0877 1.4 7 1.4Z" fill="white" fill-opacity="0.8"/>
<path d="M7.00273 10.3241C6.81708 10.3241 6.63904 10.2504 6.50776 10.1191C6.37648 9.98781 6.30273 9.80976 6.30273 9.62411V6.62671C6.30273 6.44106 6.37648 6.26301 6.50776 6.13174C6.63904 6.00046 6.81708 5.92671 7.00273 5.92671C7.18839 5.92671 7.36643 6.00046 7.49771 6.13174C7.62898 6.26301 7.70273 6.44106 7.70273 6.62671V9.62411C7.70273 9.80976 7.62898 9.98781 7.49771 10.1191C7.36643 10.2504 7.18839 10.3241 7.00273 10.3241ZM7.00273 5.07411C6.82073 5.07411 6.63873 4.99711 6.50573 4.87111C6.37973 4.73811 6.30273 4.55611 6.30273 4.37411C6.30273 4.28311 6.32373 4.19211 6.35873 4.10811C6.39373 4.02411 6.44273 3.94711 6.50573 3.87711C6.77173 3.61811 7.23373 3.61811 7.49973 3.87711C7.62573 4.01011 7.70273 4.19211 7.70273 4.37411C7.70273 4.55611 7.62573 4.73811 7.49973 4.87111C7.42973 4.93411 7.35273 4.98311 7.26873 5.01811C7.18473 5.06011 7.09373 5.07411 7.00273 5.07411Z" fill="white" fill-opacity="0.8"/>
</svg>
